<svg width="14" height="16" viewBox="0 0 14 16" fill="none" xmlns="http://www.w3.org/2000/svg">
<path d="M4.78951 15.9998C2.40823 15.9861 0.438477 11.1251 0.438477 8.64954C0.438477 4.60566 3.47207 3.72035 4.6412 3.72035C5.16807 3.72035 5.73066 3.92725 6.22688 4.11035C6.57388 4.23807 6.93276 4.36991 7.13235 4.36991C7.25182 4.36991 7.53335 4.25775 7.78191 4.15935C8.31201 3.94832 8.97163 3.68604 9.73976 3.68604C9.74113 3.68604 9.74298 3.68604 9.74432 3.68604C10.3179 3.68604 12.0569 3.81191 13.1025 5.38204L13.3474 5.75007L12.9949 6.01604C12.4914 6.39597 11.5726 7.08904 11.5726 8.46188C11.5726 10.0878 12.6131 10.7132 13.113 11.0139C13.3337 11.1467 13.5621 11.2835 13.5621 11.5829C13.5621 11.7784 12.002 15.9756 9.73654 15.9756C9.1822 15.9756 8.79035 15.809 8.44473 15.662C8.09501 15.5133 7.79332 15.3851 7.29482 15.3851C7.04213 15.3851 6.7226 15.5046 6.38432 15.6314C5.92204 15.8039 5.39879 15.9998 4.80507 15.9998H4.78951Z" fill="white"/>
<path d="M9.97954 0C10.0385 2.12737 8.51713 3.60325 6.9975 3.51069C6.74709 1.81297 8.51694 0 9.97954 0Z" fill="white"/>
</svg>
