<svg width="167" height="154" viewBox="0 0 167 154" fill="none" xmlns="http://www.w3.org/2000/svg">
<path d="M48.8052 73C48.8052 82.9411 56.864 91 66.8052 91L93.8052 91C96.5666 91 98.8052 88.7614 98.8052 86L98.8052 52C98.8052 46.4772 94.328 42 88.8052 42L53.8052 42C51.0437 42 48.8052 44.2386 48.8052 47L48.8052 73Z" fill="#FFF1DA"/>
<path d="M96.1746 86.8476C94.8163 87.1518 93.4933 87.7153 92.2877 88.5028C89.1469 90.5041 87.3196 93.3608 88.2066 94.8829C89.0935 96.4051 92.3586 96.0158 95.4993 94.0145C96.7211 93.2549 97.8065 92.2841 98.6887 91.1621C99.0981 90.62 99.1715 89.9446 98.8763 89.4396L97.7241 87.4623C97.431 86.9557 96.8229 86.7149 96.1746 86.8476Z" fill="#D5D6DB"/>
<path d="M88.2875 59.8543C87.3025 60.0751 86.3431 60.4839 85.4688 61.0549C83.192 62.5057 81.8662 64.5771 82.5088 65.6799C83.1514 66.7827 85.5199 66.5002 87.7965 65.0495C88.6824 64.4985 89.4693 63.7942 90.1091 62.9806C90.4056 62.5876 90.4587 62.0983 90.2447 61.7322L89.4105 60.3004C89.1982 59.9333 88.7576 59.7582 88.2875 59.8543Z" fill="#D5D6DB"/>
<path d="M75.4735 60.9848C75.2543 60.9604 75.0204 61.0188 74.8177 61.1483L69.4695 64.5565C69.0221 64.8407 68.8431 65.3881 69.0701 65.7793C69.122 65.8689 69.193 65.9454 69.2792 66.0044L82.4609 75.0894L100.294 63.7247L75.4735 60.9848Z" fill="#029BC5"/>
<path d="M131.85 59.7005L83.3184 90.2526L54.6056 101.678L39.9625 104.589L38.3516 101.852L119.247 51.9049C121.657 50.4101 124.343 49.4925 127.032 49.2454C128.209 49.1435 129.372 49.1827 130.493 49.3615C131.487 49.5122 132.43 49.8029 133.294 50.225C134.258 50.7032 136.093 50.7584 136.687 51.7112C136.689 51.7097 138.091 56.0841 131.85 59.7005V59.7005Z" fill="#E1E6E9"/>
<path d="M83.9617 86.2096L62.9665 119.68C62.7042 120.15 62.8599 120.676 63.3138 120.855C63.5923 120.965 63.9333 120.922 64.2197 120.74L69.5637 117.35C70.5915 116.697 71.5016 115.869 72.2378 114.915L112.954 67.0464L83.9617 86.2096Z" fill="#029BC5"/>
<path d="M30.9821 85.0923C30.6319 84.9726 30.2151 85.0347 29.8633 85.2588L25.4458 88.0722C24.8439 88.4552 24.604 89.1917 24.9099 89.7173C24.9682 89.8173 25.0439 89.9052 25.1346 89.9777L37.5114 99.89L50.5244 91.7619L30.9821 85.0923Z" fill="#029BC5"/>
<path d="M41.6599 101.677L34.9985 111.006C34.9008 111.14 34.9238 111.309 35.0497 111.382C35.1406 111.435 35.2646 111.425 35.3654 111.358L39.4936 108.742C39.5257 108.722 39.5547 108.696 39.5787 108.667L49.3123 96.8323L41.6599 101.677Z" fill="#029BC5"/>
<path d="M129.697 49.7635C128.542 49.578 127.345 49.5385 126.132 49.6451C124.951 51.2961 124.196 53.1509 123.943 55.0243C123.924 55.4006 124.228 55.6715 124.621 55.6293C124.743 55.616 124.864 55.5731 124.973 55.5043L132.581 50.6601C131.692 50.2215 130.721 49.9196 129.697 49.7635Z" fill="#029BC5"/>
<path d="M113.118 58.6714L118.085 55.5344L122.711 63.4035L117.744 66.5404L113.118 58.6714Z" fill="#D5D6DB"/>
<path d="M109.992 61.784C109.393 62.1631 109.154 62.8919 109.458 63.4116L109.95 64.2536C110.274 64.7601 111.013 64.8491 111.602 64.4524C112.161 64.0746 112.387 63.388 112.117 62.8809L111.625 62.039C111.321 61.5197 110.59 61.4054 109.992 61.784V61.784Z" fill="#3A556A"/>
<path d="M105.527 64.5564C104.929 64.9356 104.69 65.6644 104.994 66.1841L105.486 67.0261C105.81 67.5325 106.549 67.6216 107.137 67.2249C107.697 66.8471 107.922 66.1604 107.653 65.6534L107.16 64.8114C106.857 64.2923 106.126 64.178 105.527 64.5564V64.5564Z" fill="#3A556A"/>
<path d="M101.062 67.3297C100.464 67.7094 100.226 68.4373 100.529 68.9565L101.021 69.7985C101.345 70.3049 102.085 70.394 102.673 69.9973C103.233 69.6195 103.458 68.9329 103.188 68.4258L102.696 67.5839C102.392 67.0642 101.661 66.9504 101.062 67.3297V67.3297Z" fill="#3A556A"/>
<path d="M96.5975 70.1022C95.9996 70.4818 95.7612 71.2097 96.0648 71.729L96.5571 72.571C96.881 73.0775 97.6202 73.1665 98.2085 72.7698C98.7683 72.392 98.9938 71.7053 98.724 71.1983L98.2317 70.3563C97.9276 69.8368 97.196 69.723 96.5975 70.1022V70.1022Z" fill="#3A556A"/>
<path d="M92.1337 72.8748C91.5355 73.2546 91.297 73.9829 91.6008 74.5024L92.0934 75.3447C92.397 75.864 93.1283 75.9777 93.7267 75.5987C94.325 75.2197 94.5639 74.4915 94.2603 73.9722L93.7677 73.1299C93.4648 72.6102 92.7338 72.4957 92.135 72.874C92.1345 72.8743 92.1342 72.8745 92.1337 72.8748Z" fill="#3A556A"/>
<path d="M87.6689 75.6473C87.0707 76.0271 86.8321 76.7553 87.1359 77.2748L87.6285 78.1171C87.9322 78.6364 88.6635 78.7501 89.2618 78.3711C89.8602 77.9922 90.0991 77.264 89.7954 76.7447L89.3028 75.9024C88.9999 75.3826 88.2689 75.2681 87.6702 75.6465C87.6697 75.6468 87.6691 75.6471 87.6689 75.6473Z" fill="#3A556A"/>
<path d="M83.2045 78.4198C82.6063 78.7996 82.3678 79.5278 82.6716 80.0472L83.1642 80.8896C83.4686 81.4083 84.2002 81.5209 84.7979 81.1414C85.3946 80.7626 85.633 80.036 85.3308 79.5173L84.8382 78.675C84.5346 78.1554 83.8034 78.0411 83.2045 78.4198Z" fill="#3A556A"/>
<path d="M78.7402 81.1922C78.1419 81.572 77.9034 82.3002 78.2072 82.8197L78.6998 83.6621C79.0042 84.1809 79.7358 84.2934 80.3336 83.914C80.9303 83.5351 81.1687 82.8084 80.8664 82.2898L80.3738 81.4474C80.0703 80.9278 79.339 80.8135 78.7402 81.1922Z" fill="#3A556A"/>
<path d="M74.2758 83.9647C73.6776 84.3445 73.4391 85.0727 73.7429 85.5922L74.2354 86.4345C74.5399 86.9533 75.2715 87.0658 75.8692 86.6864C76.4659 86.3075 76.7043 85.5809 76.402 85.0622L75.9095 84.2199C75.6057 83.7004 74.8744 83.5861 74.2758 83.9647Z" fill="#3A556A"/>
<path d="M69.81 86.7381C69.2116 87.1171 68.9727 87.8453 69.2764 88.3645L69.277 88.3656L69.7696 89.208C70.0741 89.7268 70.8057 89.8393 71.4034 89.4599C72.0001 89.081 72.2385 88.3543 71.9362 87.8357L71.4436 86.9933C71.1401 86.4737 70.4089 86.3594 69.81 86.7381Z" fill="#3A556A"/>
<path d="M65.3466 89.5096C64.7483 89.8886 64.5094 90.6167 64.813 91.136L64.8137 91.1371L65.3063 91.9794C65.6107 92.4982 66.3423 92.6108 66.94 92.2313C67.5368 91.8524 67.7752 91.1258 67.4729 90.6072L66.9803 89.7648C66.6765 89.2454 65.9453 89.1311 65.3466 89.5096Z" fill="#3A556A"/>
</svg>
