<svg width="168" height="155" viewBox="0 0 168 155" fill="none" xmlns="http://www.w3.org/2000/svg">
<path d="M49.8052 74C49.8052 83.9411 57.864 92 67.8052 92L94.8052 92C97.5666 92 99.8052 89.7614 99.8052 87L99.8052 53C99.8052 47.4772 95.328 43 89.8052 43L54.8052 43C52.0438 43 49.8052 45.2386 49.8052 48L49.8052 74Z" fill="#FFF1DA"/>
<path d="M97.1746 87.8476C95.8163 88.1518 94.4933 88.7153 93.2877 89.5028C90.1469 91.5041 88.3196 94.3608 89.2066 95.8829C90.0935 97.4051 93.3586 97.0158 96.4993 95.0145C97.7211 94.2549 98.8065 93.2841 99.6887 92.1621C100.098 91.62 100.172 90.9446 99.8763 90.4396L98.7241 88.4623C98.431 87.9557 97.8229 87.7149 97.1746 87.8476Z" fill="#D5D6DB"/>
<path d="M89.2875 60.8543C88.3025 61.0751 87.3431 61.4839 86.4688 62.0549C84.192 63.5057 82.8662 65.5771 83.5088 66.6799C84.1514 67.7827 86.5199 67.5002 88.7965 66.0495C89.6824 65.4985 90.4693 64.7942 91.1091 63.9806C91.4056 63.5876 91.4587 63.0983 91.2447 62.7322L90.4105 61.3004C90.1982 60.9333 89.7576 60.7582 89.2875 60.8543Z" fill="#D5D6DB"/>
<path d="M76.4735 61.9848C76.2543 61.9604 76.0204 62.0188 75.8177 62.1483L70.4695 65.5565C70.0221 65.8407 69.8431 66.3881 70.0701 66.7793C70.122 66.8689 70.193 66.9454 70.2792 67.0044L83.4609 76.0894L101.294 64.7247L76.4735 61.9848Z" fill="#029BC5"/>
<path d="M132.85 60.7005L84.3184 91.2526L55.6056 102.678L40.9625 105.589L39.3516 102.852L120.247 52.9049C122.657 51.4101 125.343 50.4925 128.032 50.2454C129.209 50.1435 130.372 50.1827 131.493 50.3615C132.487 50.5122 133.43 50.8029 134.294 51.225C135.258 51.7032 137.093 51.7584 137.687 52.7112C137.689 52.7097 139.091 57.0841 132.85 60.7005Z" fill="#E1E6E9"/>
<path d="M84.9617 87.2096L63.9665 120.68C63.7042 121.15 63.8599 121.676 64.3138 121.855C64.5923 121.965 64.9333 121.922 65.2197 121.74L70.5637 118.35C71.5915 117.697 72.5016 116.869 73.2378 115.915L113.954 68.0464L84.9617 87.2096Z" fill="#029BC5"/>
<path d="M31.9821 86.0923C31.6319 85.9726 31.2151 86.0347 30.8633 86.2588L26.4458 89.0722C25.8439 89.4552 25.604 90.1917 25.9099 90.7173C25.9682 90.8173 26.0439 90.9052 26.1346 90.9777L38.5114 100.89L51.5244 92.7619L31.9821 86.0923Z" fill="#029BC5"/>
<path d="M42.6599 102.677L35.9985 112.006C35.9008 112.14 35.9238 112.309 36.0497 112.382C36.1406 112.435 36.2646 112.425 36.3654 112.358L40.4936 109.742C40.5257 109.722 40.5547 109.696 40.5787 109.667L50.3123 97.8323L42.6599 102.677Z" fill="#029BC5"/>
<path d="M130.697 50.7635C129.542 50.578 128.345 50.5385 127.132 50.6451C125.951 52.2961 125.196 54.1509 124.943 56.0243C124.924 56.4006 125.228 56.6715 125.621 56.6293C125.743 56.616 125.864 56.5731 125.973 56.5043L133.581 51.6601C132.692 51.2215 131.721 50.9196 130.697 50.7635Z" fill="#029BC5"/>
<path d="M114.118 59.6714L119.085 56.5344L123.711 64.4035L118.744 67.5404L114.118 59.6714Z" fill="#D5D6DB"/>
<path d="M110.992 62.784C110.393 63.1631 110.154 63.8919 110.458 64.4116L110.95 65.2536C111.274 65.7601 112.013 65.8491 112.602 65.4524C113.161 65.0746 113.387 64.388 113.117 63.8809L112.625 63.039C112.321 62.5197 111.59 62.4054 110.992 62.784Z" fill="#3A556A"/>
<path d="M106.527 65.5564C105.929 65.9356 105.69 66.6644 105.994 67.1841L106.486 68.0261C106.81 68.5325 107.549 68.6216 108.137 68.2249C108.697 67.8471 108.922 67.1604 108.653 66.6534L108.16 65.8114C107.857 65.2923 107.126 65.178 106.527 65.5564Z" fill="#3A556A"/>
<path d="M102.062 68.3297C101.464 68.7094 101.226 69.4373 101.529 69.9565L102.021 70.7985C102.345 71.3049 103.085 71.394 103.673 70.9973C104.233 70.6195 104.458 69.9329 104.188 69.4258L103.696 68.5839C103.392 68.0642 102.661 67.9504 102.062 68.3297Z" fill="#3A556A"/>
<path d="M97.5975 71.1022C96.9996 71.4818 96.7612 72.2097 97.0648 72.729L97.5571 73.571C97.881 74.0775 98.6202 74.1665 99.2085 73.7698C99.7683 73.392 99.9938 72.7053 99.724 72.1983L99.2317 71.3563C98.9276 70.8368 98.196 70.723 97.5975 71.1022Z" fill="#3A556A"/>
<path d="M93.1337 73.8748C92.5355 74.2546 92.297 74.9829 92.6008 75.5024L93.0934 76.3447C93.397 76.864 94.1283 76.9777 94.7267 76.5987C95.325 76.2197 95.5639 75.4915 95.2603 74.9722L94.7677 74.1299C94.4648 73.6102 93.7338 73.4957 93.135 73.874C93.1345 73.8743 93.1342 73.8745 93.1337 73.8748Z" fill="#3A556A"/>
<path d="M88.6689 76.6473C88.0707 77.0271 87.8321 77.7553 88.1359 78.2748L88.6285 79.1171C88.9322 79.6364 89.6635 79.7501 90.2618 79.3711C90.8602 78.9922 91.0991 78.264 90.7954 77.7447L90.3028 76.9024C89.9999 76.3826 89.2689 76.2681 88.6702 76.6465C88.6697 76.6468 88.6691 76.6471 88.6689 76.6473Z" fill="#3A556A"/>
<path d="M84.2045 79.4198C83.6063 79.7996 83.3678 80.5278 83.6716 81.0472L84.1642 81.8896C84.4686 82.4083 85.2002 82.5209 85.7979 82.1414C86.3946 81.7626 86.633 81.036 86.3308 80.5173L85.8382 79.675C85.5346 79.1554 84.8034 79.0411 84.2045 79.4198Z" fill="#3A556A"/>
<path d="M79.7402 82.1922C79.1419 82.572 78.9034 83.3002 79.2072 83.8197L79.6998 84.6621C80.0042 85.1809 80.7358 85.2934 81.3336 84.914C81.9303 84.5351 82.1687 83.8084 81.8664 83.2898L81.3738 82.4474C81.0703 81.9278 80.339 81.8135 79.7402 82.1922Z" fill="#3A556A"/>
<path d="M75.2758 84.9647C74.6776 85.3445 74.4391 86.0727 74.7429 86.5922L75.2354 87.4345C75.5399 87.9533 76.2715 88.0658 76.8692 87.6864C77.4659 87.3075 77.7043 86.5809 77.402 86.0622L76.9095 85.2199C76.6057 84.7004 75.8744 84.5861 75.2758 84.9647Z" fill="#3A556A"/>
<path d="M70.81 87.7381C70.2116 88.1171 69.9727 88.8453 70.2764 89.3645L70.277 89.3656L70.7696 90.208C71.0741 90.7268 71.8057 90.8393 72.4034 90.4599C73.0001 90.081 73.2385 89.3543 72.9362 88.8357L72.4436 87.9933C72.1401 87.4737 71.4089 87.3594 70.81 87.7381Z" fill="#3A556A"/>
<path d="M66.3466 90.5096C65.7483 90.8886 65.5094 91.6167 65.813 92.136L65.8137 92.1371L66.3063 92.9794C66.6107 93.4982 67.3423 93.6108 67.94 93.2313C68.5368 92.8524 68.7752 92.1258 68.4729 91.6072L67.9803 90.7648C67.6765 90.2454 66.9453 90.1311 66.3466 90.5096Z" fill="#3A556A"/>
</svg>
