<svg width="74" height="18" viewBox="0 0 74 18" fill="none" xmlns="http://www.w3.org/2000/svg">
<path d="M4.78951 15.9998C2.40823 15.9861 0.438477 11.1251 0.438477 8.64954C0.438477 4.60566 3.47207 3.72035 4.6412 3.72035C5.16807 3.72035 5.73066 3.92725 6.22688 4.11035C6.57388 4.23807 6.93276 4.36991 7.13235 4.36991C7.25182 4.36991 7.53335 4.25775 7.78191 4.15935C8.31201 3.94832 8.97163 3.68604 9.73976 3.68604C9.74113 3.68604 9.74298 3.68604 9.74432 3.68604C10.3179 3.68604 12.0569 3.81191 13.1025 5.38204L13.3474 5.75007L12.9949 6.01604C12.4914 6.39597 11.5726 7.08904 11.5726 8.46188C11.5726 10.0878 12.6131 10.7132 13.113 11.0139C13.3337 11.1467 13.5621 11.2835 13.5621 11.5829C13.5621 11.7784 12.002 15.9756 9.73654 15.9756C9.1822 15.9756 8.79035 15.809 8.44473 15.662C8.09501 15.5133 7.79332 15.3851 7.29482 15.3851C7.04213 15.3851 6.7226 15.5046 6.38432 15.6314C5.92204 15.8039 5.39879 15.9998 4.80507 15.9998H4.78951Z" fill="white"/>
<path d="M9.97954 0C10.0385 2.12737 8.51713 3.60325 6.9975 3.51069C6.74709 1.81297 8.51694 0 9.97954 0Z" fill="white"/>
<path d="M22.03 5H23.08L21.652 0.799995H20.428L19 5H20.05L20.26 4.34H21.82L22.03 5ZM20.548 3.44L21.04 1.898L21.532 3.44H20.548Z" fill="white"/>
<path d="M25.2049 2L24.5809 3.902L23.9569 2H22.9609L24.0709 5H25.0909L26.2009 2H25.2049Z" fill="white"/>
<path d="M28.592 2V2.282C28.394 2.054 28.1 1.916 27.698 1.916C26.912 1.916 26.264 2.606 26.264 3.5C26.264 4.394 26.912 5.084 27.698 5.084C28.1 5.084 28.394 4.946 28.592 4.718V5H29.492V2H28.592ZM27.878 4.232C27.464 4.232 27.164 3.95 27.164 3.5C27.164 3.05 27.464 2.768 27.878 2.768C28.292 2.768 28.592 3.05 28.592 3.5C28.592 3.95 28.292 4.232 27.878 4.232Z" fill="white"/>
<path d="M30.1523 5H31.0523V0.619995H30.1523V5Z" fill="white"/>
<path d="M32.1609 1.736C32.4549 1.736 32.7009 1.49 32.7009 1.196C32.7009 0.901995 32.4549 0.655995 32.1609 0.655995C31.8669 0.655995 31.6209 0.901995 31.6209 1.196C31.6209 1.49 31.8669 1.736 32.1609 1.736ZM31.7109 5H32.6109V2H31.7109V5Z" fill="white"/>
<path d="M35.0635 1.916C34.6615 1.916 34.3675 2.054 34.1695 2.282V0.799995H33.2695V5H34.1695V4.718C34.3675 4.946 34.6615 5.084 35.0635 5.084C35.8495 5.084 36.4975 4.394 36.4975 3.5C36.4975 2.606 35.8495 1.916 35.0635 1.916ZM34.8835 4.232C34.4695 4.232 34.1695 3.95 34.1695 3.5C34.1695 3.05 34.4695 2.768 34.8835 2.768C35.2975 2.768 35.5975 3.05 35.5975 3.5C35.5975 3.95 35.2975 4.232 34.8835 4.232Z" fill="white"/>
<path d="M37.0077 5H37.9077V0.619995H37.0077V5Z" fill="white"/>
<path d="M39.3703 3.86H41.5003C41.5243 3.746 41.5363 3.626 41.5363 3.5C41.5363 2.594 40.8883 1.916 40.0123 1.916C39.0643 1.916 38.4163 2.606 38.4163 3.5C38.4163 4.394 39.0523 5.084 40.0783 5.084C40.6483 5.084 41.0923 4.874 41.3863 4.466L40.6663 4.052C40.5463 4.184 40.3363 4.28 40.0903 4.28C39.7603 4.28 39.4843 4.172 39.3703 3.86ZM39.3523 3.188C39.4363 2.882 39.6643 2.714 40.0063 2.714C40.2763 2.714 40.5463 2.84 40.6423 3.188H39.3523Z" fill="white"/>
<path d="M44.9868 5.084C45.8688 5.084 46.5768 4.394 46.5768 3.5C46.5768 2.606 45.8688 1.916 44.9868 1.916C44.1048 1.916 43.3968 2.606 43.3968 3.5C43.3968 4.394 44.1048 5.084 44.9868 5.084ZM44.9868 4.208C44.5968 4.208 44.2968 3.926 44.2968 3.5C44.2968 3.074 44.5968 2.792 44.9868 2.792C45.3768 2.792 45.6768 3.074 45.6768 3.5C45.6768 3.926 45.3768 4.208 44.9868 4.208Z" fill="white"/>
<path d="M48.8439 1.916C48.4479 1.916 48.1479 2.06 47.9859 2.282V2H47.0859V5H47.9859V3.362C47.9859 2.936 48.2139 2.744 48.5439 2.744C48.8319 2.744 49.0659 2.918 49.0659 3.29V5H49.9659V3.158C49.9659 2.348 49.4499 1.916 48.8439 1.916Z" fill="white"/>
<path d="M53.8419 2.864V2H53.2239V1.15999L52.3239 1.43V2H51.8439V2.864H52.3239V3.926C52.3239 4.766 52.6659 5.12 53.8419 5V4.184C53.4459 4.208 53.2239 4.184 53.2239 3.926V2.864H53.8419Z" fill="white"/>
<path d="M56.1095 1.916C55.7135 1.916 55.4135 2.06 55.2515 2.282V0.799995H54.3515V5H55.2515V3.362C55.2515 2.936 55.4795 2.744 55.8095 2.744C56.0975 2.744 56.3315 2.918 56.3315 3.29V5H57.2315V3.158C57.2315 2.348 56.7155 1.916 56.1095 1.916Z" fill="white"/>
<path d="M58.6535 3.86H60.7835C60.8075 3.746 60.8195 3.626 60.8195 3.5C60.8195 2.594 60.1715 1.916 59.2955 1.916C58.3475 1.916 57.6995 2.606 57.6995 3.5C57.6995 4.394 58.3355 5.084 59.3615 5.084C59.9315 5.084 60.3755 4.874 60.6695 4.466L59.9495 4.052C59.8295 4.184 59.6195 4.28 59.3735 4.28C59.0435 4.28 58.7675 4.172 58.6535 3.86ZM58.6355 3.188C58.7195 2.882 58.9475 2.714 59.2895 2.714C59.5595 2.714 59.8295 2.84 59.9255 3.188H58.6355Z" fill="white"/>
<path d="M24.05 16H25.8L23.42 8.99999H21.38L19 16H20.75L21.1 14.9H23.7L24.05 16ZM21.58 13.4L22.4 10.83L23.22 13.4H21.58Z" fill="white"/>
<path d="M29.3369 10.86C28.6669 10.86 28.1769 11.09 27.8469 11.47V11H26.3469V18H27.8469V15.53C28.1769 15.91 28.6669 16.14 29.3369 16.14C30.6469 16.14 31.7269 14.99 31.7269 13.5C31.7269 12.01 30.6469 10.86 29.3369 10.86ZM29.0369 14.72C28.3469 14.72 27.8469 14.25 27.8469 13.5C27.8469 12.75 28.3469 12.28 29.0369 12.28C29.7269 12.28 30.2269 12.75 30.2269 13.5C30.2269 14.25 29.7269 14.72 29.0369 14.72Z" fill="white"/>
<path d="M35.5673 10.86C34.8973 10.86 34.4073 11.09 34.0773 11.47V11H32.5773V18H34.0773V15.53C34.4073 15.91 34.8973 16.14 35.5673 16.14C36.8773 16.14 37.9573 14.99 37.9573 13.5C37.9573 12.01 36.8773 10.86 35.5673 10.86ZM35.2673 14.72C34.5773 14.72 34.0773 14.25 34.0773 13.5C34.0773 12.75 34.5773 12.28 35.2673 12.28C35.9573 12.28 36.4573 12.75 36.4573 13.5C36.4573 14.25 35.9573 14.72 35.2673 14.72Z" fill="white"/>
<path d="M38.8078 16H40.3078V8.7H38.8078V16Z" fill="white"/>
<path d="M42.7455 14.1H46.2955C46.3355 13.91 46.3555 13.71 46.3555 13.5C46.3555 11.99 45.2755 10.86 43.8155 10.86C42.2355 10.86 41.1555 12.01 41.1555 13.5C41.1555 14.99 42.2155 16.14 43.9255 16.14C44.8755 16.14 45.6155 15.79 46.1055 15.11L44.9055 14.42C44.7055 14.64 44.3555 14.8 43.9455 14.8C43.3955 14.8 42.9355 14.62 42.7455 14.1ZM42.7155 12.98C42.8555 12.47 43.2355 12.19 43.8055 12.19C44.2555 12.19 44.7055 12.4 44.8655 12.98H42.7155Z" fill="white"/>
<path d="M52.2062 16.14C53.7262 16.14 54.8063 15.34 54.8063 13.99C54.8063 12.51 53.6163 12.14 52.5563 11.82C51.4663 11.49 51.2962 11.27 51.2962 10.95C51.2962 10.67 51.5462 10.42 52.0462 10.42C52.6862 10.42 53.0162 10.73 53.2562 11.23L54.6063 10.44C54.0963 9.41 53.1963 8.85999 52.0462 8.85999C50.8363 8.85999 49.6963 9.64 49.6963 10.99C49.6963 12.33 50.7162 12.83 51.7562 13.12C52.8062 13.41 53.2062 13.58 53.2062 14.01C53.2062 14.28 53.0162 14.58 52.2562 14.58C51.4662 14.58 51.0363 14.19 50.7862 13.61L49.4062 14.41C49.7962 15.44 50.7362 16.14 52.2062 16.14Z" fill="white"/>
<path d="M58.3394 12.44V11H57.3094V9.59999L55.8094 10.05V11H55.0094V12.44H55.8094V14.21C55.8094 15.61 56.3794 16.2 58.3394 16V14.64C57.6794 14.68 57.3094 14.64 57.3094 14.21V12.44H58.3394Z" fill="white"/>
<path d="M61.491 16.14C62.961 16.14 64.141 14.99 64.141 13.5C64.141 12.01 62.961 10.86 61.491 10.86C60.021 10.86 58.841 12.01 58.841 13.5C58.841 14.99 60.021 16.14 61.491 16.14ZM61.491 14.68C60.841 14.68 60.341 14.21 60.341 13.5C60.341 12.79 60.841 12.32 61.491 12.32C62.141 12.32 62.641 12.79 62.641 13.5C62.641 14.21 62.141 14.68 61.491 14.68Z" fill="white"/>
<path d="M66.4895 11.89V11H64.9895V16H66.4895V13.74C66.4895 12.75 67.3695 12.5 67.9895 12.6V10.9C67.3595 10.9 66.6895 11.22 66.4895 11.89Z" fill="white"/>
<path d="M69.8841 14.1H73.4341C73.4741 13.91 73.4941 13.71 73.4941 13.5C73.4941 11.99 72.4141 10.86 70.9541 10.86C69.3741 10.86 68.2941 12.01 68.2941 13.5C68.2941 14.99 69.3541 16.14 71.0641 16.14C72.0141 16.14 72.7541 15.79 73.2441 15.11L72.0441 14.42C71.8441 14.64 71.4941 14.8 71.0841 14.8C70.5341 14.8 70.0741 14.62 69.8841 14.1ZM69.8541 12.98C69.9941 12.47 70.3741 12.19 70.9441 12.19C71.3941 12.19 71.8441 12.4 72.0041 12.98H69.8541Z" fill="white"/>
</svg>
