<svg width="79" height="20" viewBox="0 0 79 20" fill="none" xmlns="http://www.w3.org/2000/svg">
<g clip-path="url(#clip0_2028_2530)">
<path d="M11.5075 10.0018L1.46393 19.673C0.993605 19.3516 0.714365 18.817 0.719303 18.2473V1.75626C0.714365 1.18663 0.993605 0.65199 1.46393 0.330566L11.5075 10.0018Z" fill="#2196F3"/>
<path d="M15.0217 6.62364L11.5074 10.0018L1.46387 0.330532C1.50171 0.301203 1.54113 0.273918 1.58191 0.248803C2.11272 -0.0729183 2.77574 -0.0833047 3.31639 0.22156L15.0217 6.62364Z" fill="#4CAF50"/>
<path d="M19.2806 10.0018C19.2872 10.6448 18.9377 11.2388 18.3725 11.5456L15.0217 13.3799L11.5073 10.0018L15.0217 6.62366L18.3725 8.458C18.9377 8.76474 19.2872 9.35872 19.2806 10.0018Z" fill="#F0BB1F"/>
<path d="M15.0217 13.3798L3.31639 19.7819C2.77455 20.0821 2.11404 20.0717 1.58191 19.7547C1.54113 19.7296 1.50171 19.7023 1.46387 19.6729L11.5074 10.0017L15.0217 13.3798Z" fill="#F15A2B"/>
</g>
<path d="M31.0242 4.87996H28.2162V5.99996H29.7122C29.5122 6.53596 29.0242 6.86396 28.2802 6.86396C27.1922 6.86396 26.5202 6.16796 26.5202 5.21596C26.5202 4.23196 27.2242 3.53596 28.1682 3.53596C28.8002 3.53596 29.3042 3.82396 29.5362 4.19196L30.6242 3.56796C30.1522 2.81596 29.2482 2.28796 28.1762 2.28796C26.5282 2.28796 25.2402 3.58396 25.2402 5.20796C25.2402 6.81596 26.5042 8.11196 28.2642 8.11196C29.8322 8.11196 31.0242 7.07196 31.0242 5.35996V4.87996Z" fill="white"/>
<path d="M32.6259 6.76796V5.77596H34.6259V4.55996H32.6259V3.63196H34.8259V2.39996H31.3459V7.99996H34.8659V6.76796H32.6259Z" fill="white"/>
<path d="M38.948 2.39996H34.788V3.63196H36.228V7.99996H37.508V3.63196H38.948V2.39996Z" fill="white"/>
<path d="M40.7084 2.39996V7.99996H41.9884V2.39996H40.7084Z" fill="white"/>
<path d="M46.3105 2.39996H42.1505V3.63196H43.5905V7.99996H44.8705V3.63196H46.3105V2.39996Z" fill="white"/>
<path d="M50.7429 8.11196C52.3509 8.11196 53.6549 6.84796 53.6549 5.19996C53.6549 3.55196 52.3509 2.28796 50.7429 2.28796C49.1349 2.28796 47.8309 3.55196 47.8309 5.19996C47.8309 6.84796 49.1349 8.11196 50.7429 8.11196ZM50.7429 6.86396C49.8309 6.86396 49.1109 6.19996 49.1109 5.19996C49.1109 4.19996 49.8309 3.53596 50.7429 3.53596C51.6549 3.53596 52.3749 4.19996 52.3749 5.19996C52.3749 6.19996 51.6549 6.86396 50.7429 6.86396Z" fill="white"/>
<path d="M57.0955 2.39996V5.43996L54.9355 2.39996H53.9755V7.99996H55.2555V4.95996L57.4155 7.99996H58.3755V2.39996H57.0955Z" fill="white"/>
<path d="M31.0242 14.392V14.608C31.0242 15.3066 30.7762 15.896 30.2802 16.376C29.7842 16.8506 29.1309 17.088 28.3202 17.088C27.4669 17.088 26.7629 16.8106 26.2082 16.256C25.6536 15.696 25.3762 15.0106 25.3762 14.2C25.3762 13.3893 25.6509 12.7066 26.2002 12.152C26.7496 11.592 27.4456 11.312 28.2882 11.312C28.8002 11.312 29.2696 11.4346 29.6962 11.68C30.1282 11.9253 30.4616 12.2533 30.6962 12.664L30.3202 12.888C30.1336 12.536 29.8562 12.2533 29.4882 12.04C29.1256 11.8266 28.7256 11.72 28.2882 11.72C27.5629 11.72 26.9656 11.96 26.4962 12.44C26.0322 12.9146 25.8002 13.5013 25.8002 14.2C25.8002 14.8986 26.0349 15.488 26.5042 15.968C26.9736 16.4426 27.5789 16.68 28.3202 16.68C28.9762 16.68 29.5069 16.5013 29.9122 16.144C30.3176 15.7866 30.5442 15.336 30.5922 14.792H28.2162V14.392H31.0242Z" fill="white"/>
<path d="M36.7029 16.248C36.1429 16.808 35.4602 17.088 34.6549 17.088C33.8495 17.088 33.1669 16.808 32.6069 16.248C32.0469 15.6826 31.7669 15 31.7669 14.2C31.7669 13.4 32.0469 12.72 32.6069 12.16C33.1669 11.5946 33.8495 11.312 34.6549 11.312C35.4602 11.312 36.1429 11.5946 36.7029 12.16C37.2629 12.72 37.5429 13.4 37.5429 14.2C37.5429 15 37.2629 15.6826 36.7029 16.248ZM32.9029 15.96C33.3829 16.44 33.9669 16.68 34.6549 16.68C35.3429 16.68 35.9242 16.44 36.3989 15.96C36.8789 15.4746 37.1189 14.888 37.1189 14.2C37.1189 13.512 36.8789 12.928 36.3989 12.448C35.9242 11.9626 35.3429 11.72 34.6549 11.72C33.9669 11.72 33.3829 11.9626 32.9029 12.448C32.4282 12.928 32.1909 13.512 32.1909 14.2C32.1909 14.888 32.4282 15.4746 32.9029 15.96Z" fill="white"/>
<path d="M43.2341 16.248C42.6741 16.808 41.9914 17.088 41.1861 17.088C40.3808 17.088 39.6981 16.808 39.1381 16.248C38.5781 15.6826 38.2981 15 38.2981 14.2C38.2981 13.4 38.5781 12.72 39.1381 12.16C39.6981 11.5946 40.3808 11.312 41.1861 11.312C41.9914 11.312 42.6741 11.5946 43.2341 12.16C43.7941 12.72 44.0741 13.4 44.0741 14.2C44.0741 15 43.7941 15.6826 43.2341 16.248ZM39.4341 15.96C39.9141 16.44 40.4981 16.68 41.1861 16.68C41.8741 16.68 42.4554 16.44 42.9301 15.96C43.4101 15.4746 43.6501 14.888 43.6501 14.2C43.6501 13.512 43.4101 12.928 42.9301 12.448C42.4554 11.9626 41.8741 11.72 41.1861 11.72C40.4981 11.72 39.9141 11.9626 39.4341 12.448C38.9594 12.928 38.7221 13.512 38.7221 14.2C38.7221 14.888 38.9594 15.4746 39.4341 15.96Z" fill="white"/>
<path d="M50.4774 14.392V14.608C50.4774 15.3066 50.2294 15.896 49.7334 16.376C49.2374 16.8506 48.584 17.088 47.7734 17.088C46.92 17.088 46.216 16.8106 45.6614 16.256C45.1067 15.696 44.8294 15.0106 44.8294 14.2C44.8294 13.3893 45.104 12.7066 45.6534 12.152C46.2027 11.592 46.8987 11.312 47.7414 11.312C48.2534 11.312 48.7227 11.4346 49.1494 11.68C49.5814 11.9253 49.9147 12.2533 50.1494 12.664L49.7734 12.888C49.5867 12.536 49.3094 12.2533 48.9414 12.04C48.5787 11.8266 48.1787 11.72 47.7414 11.72C47.016 11.72 46.4187 11.96 45.9494 12.44C45.4854 12.9146 45.2534 13.5013 45.2534 14.2C45.2534 14.8986 45.488 15.488 45.9574 15.968C46.4267 16.4426 47.032 16.68 47.7734 16.68C48.4294 16.68 48.96 16.5013 49.3654 16.144C49.7707 15.7866 49.9974 15.336 50.0454 14.792H47.6694V14.392H50.4774Z" fill="white"/>
<path d="M51.964 16.6H54.604V17H51.54V11.4H51.964V16.6Z" fill="white"/>
<path d="M55.9093 16.6H58.7093V17H55.4853V11.4H58.6693V11.8H55.9093V13.976H58.4693V14.376H55.9093V16.6Z" fill="white"/>
<path d="M63.7877 11.4C64.2891 11.4 64.7051 11.5653 65.0357 11.896C65.3664 12.2266 65.5317 12.64 65.5317 13.136C65.5317 13.632 65.3664 14.0453 65.0357 14.376C64.7051 14.7013 64.2891 14.864 63.7877 14.864H62.3077V17H61.8837V11.4H63.7877ZM63.7877 14.464C64.1717 14.464 64.4864 14.3386 64.7317 14.088C64.9824 13.8373 65.1077 13.52 65.1077 13.136C65.1077 12.7466 64.9824 12.4266 64.7317 12.176C64.4864 11.9253 64.1717 11.8 63.7877 11.8H62.3077V14.464H63.7877Z" fill="white"/>
<path d="M67.003 16.6H69.643V17H66.579V11.4H67.003V16.6Z" fill="white"/>
<path d="M74.4486 17L73.9046 15.576H71.0966L70.5526 17H70.1046L72.2806 11.4H72.7286L74.8966 17H74.4486ZM71.2566 15.176H73.7526L72.5046 11.92L71.2566 15.176Z" fill="white"/>
<path d="M78.8811 11.4L76.8411 14.696V17H76.4171V14.696L74.3771 11.4H74.8571L76.6331 14.288L78.4011 11.4H78.8811Z" fill="white"/>
<defs>
<clipPath id="clip0_2028_2530">
<rect width="20" height="20" fill="white"/>
</clipPath>
</defs>
</svg>
