<svg width="145" height="152" viewBox="0 0 145 152" fill="none" xmlns="http://www.w3.org/2000/svg">
<path d="M83.4766 86.2295C82.3002 86.5281 81.1544 87.0813 80.1103 87.8543C77.3903 89.8189 75.8077 92.6233 76.5759 94.1176C77.344 95.6118 80.1717 95.2297 82.8918 93.265C83.9499 92.5194 84.8899 91.5664 85.6539 90.4649C86.0084 89.9328 86.0721 89.2697 85.8164 88.774L84.8185 86.8329C84.5646 86.3356 84.038 86.0992 83.4766 86.2295Z" fill="#D5D6DB"/>
<path d="M76.6456 59.7311C75.7926 59.9478 74.9616 60.3491 74.2045 60.9097C72.2326 62.3339 71.0845 64.3674 71.641 65.45C72.1975 66.5325 74.2487 66.2552 76.2204 64.8311C76.9876 64.2902 77.6691 63.5988 78.2232 62.8001C78.48 62.4143 78.526 61.9339 78.3407 61.5746L77.6181 60.169C77.4343 59.8086 77.0527 59.6368 76.6456 59.7311Z" fill="#D5D6DB"/>
<path d="M65.548 60.8405C65.3581 60.8165 65.1556 60.8739 64.98 61.001L60.3482 64.3468C59.9608 64.6258 59.8057 65.1631 60.0023 65.5471C60.0472 65.6351 60.1087 65.7102 60.1834 65.7681L71.5994 74.6866L87.044 63.5302L65.548 60.8405Z" fill="#029BC5"/>
<path d="M114.373 59.5794L72.3419 89.5716L47.4753 100.788L34.7936 103.645L33.3984 100.958L103.458 51.9266C105.546 50.4592 107.871 49.5584 110.2 49.3159C111.22 49.2158 112.227 49.2543 113.198 49.4298C114.059 49.5777 114.875 49.8631 115.623 50.2775C116.458 50.747 118.047 50.8011 118.562 51.7365C118.563 51.7349 119.778 56.0292 114.373 59.5794Z" fill="#E1E6E9"/>
<path d="M72.8996 85.6034L54.7167 118.46C54.4896 118.922 54.6244 119.438 55.0175 119.614C55.2587 119.722 55.554 119.68 55.802 119.501L60.4302 116.173C61.3204 115.533 62.1086 114.719 62.7461 113.783L98.0085 66.7913L72.8996 85.6034Z" fill="#029BC5"/>
<path d="M27.0164 84.5064C26.7131 84.3888 26.3521 84.4498 26.0474 84.6698L22.2216 87.4316C21.7003 87.8076 21.4926 88.5306 21.7575 89.0466C21.808 89.1447 21.8735 89.231 21.9521 89.3022L32.671 99.0329L43.9409 91.0537L27.0164 84.5064Z" fill="#029BC5"/>
<path d="M36.2638 100.787L30.4947 109.946C30.4101 110.077 30.43 110.242 30.5391 110.314C30.6177 110.366 30.7251 110.357 30.8124 110.291L34.3877 107.723C34.4154 107.703 34.4406 107.678 34.4614 107.649L42.8911 96.0313L36.2638 100.787Z" fill="#029BC5"/>
<path d="M112.508 49.8247C111.508 49.6427 110.471 49.6038 109.421 49.7084C108.398 51.3293 107.744 53.15 107.525 54.9891C107.509 55.3585 107.772 55.6244 108.112 55.583C108.218 55.57 108.323 55.5279 108.418 55.4604L115.006 50.7048C114.236 50.2743 113.395 49.978 112.508 49.8247Z" fill="#029BC5"/>
<path d="M98.1499 58.5698L102.452 55.4904L106.458 63.2152L102.157 66.2947L98.1499 58.5698Z" fill="#D5D6DB"/>
<path d="M95.4433 61.6247C94.9249 61.9969 94.7177 62.7123 94.9809 63.2225L95.4072 64.0491C95.6877 64.5462 96.3279 64.6337 96.8374 64.2442C97.3223 63.8734 97.5175 63.1993 97.2839 62.7015L96.8575 61.875C96.5945 61.3652 95.9616 61.2531 95.4433 61.6247Z" fill="#3A556A"/>
<path d="M91.577 64.3464C91.0587 64.7186 90.8515 65.434 91.1147 65.9442L91.541 66.7707C91.8215 67.2679 92.4617 67.3554 92.9712 66.9659C93.456 66.595 93.6513 65.921 93.4176 65.4232L92.9913 64.5967C92.7281 64.0871 92.0952 63.9749 91.577 64.3464Z" fill="#3A556A"/>
<path d="M87.7092 67.0688C87.1914 67.4415 86.985 68.1561 87.248 68.6658L87.6743 69.4924C87.9548 69.9895 88.595 70.077 89.1045 69.6875C89.5894 69.3167 89.7846 68.6426 89.5509 68.1449L89.1246 67.3184C88.8614 66.8082 88.2278 66.6965 87.7092 67.0688Z" fill="#3A556A"/>
<path d="M83.843 69.7905C83.3252 70.1632 83.1188 70.8778 83.3817 71.3875L83.8081 72.2141C84.0886 72.7113 84.7288 72.7987 85.2383 72.4093C85.7231 72.0384 85.9184 71.3643 85.6847 70.8666L85.2584 70.04C84.995 69.53 84.3614 69.4183 83.843 69.7905Z" fill="#3A556A"/>
<path d="M79.9769 72.5124C79.4588 72.8852 79.2522 73.6001 79.5153 74.1101L79.9419 74.937C80.2049 75.4468 80.8382 75.5584 81.3565 75.1863C81.8747 74.8143 82.0816 74.0995 81.8186 73.5897L81.392 72.7628C81.1296 72.2526 80.4965 72.1402 79.978 72.5116C79.9776 72.5119 79.9773 72.5121 79.9769 72.5124Z" fill="#3A556A"/>
<path d="M76.1107 75.2341C75.5926 75.6069 75.386 76.3218 75.6491 76.8318L76.0757 77.6587C76.3387 78.1684 76.972 78.2801 77.4902 77.908C78.0085 77.536 78.2154 76.8211 77.9524 76.3114L77.5258 75.4845C77.2634 74.9743 76.6303 74.8619 76.1118 75.2333C76.1113 75.2336 76.1109 75.2339 76.1107 75.2341Z" fill="#3A556A"/>
<path d="M72.244 77.9558C71.7259 78.3286 71.5193 79.0435 71.7824 79.5534L72.209 80.3803C72.4727 80.8896 73.1063 81.0001 73.6239 80.6276C74.1407 80.2557 74.3472 79.5424 74.0854 79.0332L73.6588 78.2063C73.3959 77.6962 72.7626 77.584 72.244 77.9558Z" fill="#3A556A"/>
<path d="M68.3773 80.6774C67.8592 81.0503 67.6526 81.7652 67.9157 82.2751L68.3423 83.102C68.606 83.6113 69.2396 83.7218 69.7572 83.3493C70.274 82.9774 70.4805 82.2641 70.2187 81.7549L69.7921 80.928C69.5292 80.4179 68.8959 80.3057 68.3773 80.6774Z" fill="#3A556A"/>
<path d="M64.5111 83.3991C63.993 83.772 63.7864 84.4868 64.0495 84.9968L64.4761 85.8237C64.7397 86.3329 65.3734 86.4435 65.891 86.0709C66.4078 85.699 66.6143 84.9857 66.3525 84.4766L65.9259 83.6497C65.6628 83.1397 65.0295 83.0275 64.5111 83.3991Z" fill="#3A556A"/>
<path d="M60.6434 86.1218C60.1252 86.4938 59.9183 87.2086 60.1813 87.7184L60.1818 87.7195L60.6084 88.5464C60.8721 89.0557 61.5057 89.1662 62.0233 88.7936C62.5401 88.4217 62.7466 87.7084 62.4848 87.1992L62.0582 86.3723C61.7953 85.8622 61.162 85.75 60.6434 86.1218Z" fill="#3A556A"/>
<path d="M56.7782 88.8425C56.2599 89.2145 56.053 89.9293 56.316 90.4391L56.3166 90.4402L56.7432 91.267C57.0069 91.7763 57.6405 91.8868 58.1581 91.5143C58.6749 91.1424 58.8814 90.4291 58.6196 89.9199L58.193 89.0931C57.9299 88.5831 57.2966 88.4709 56.7782 88.8425Z" fill="#3A556A"/>
</svg>
