<svg width="36" height="36" viewBox="0 0 36 36" fill="none" xmlns="http://www.w3.org/2000/svg">
<circle cx="18" cy="18" r="18" fill="#F5F5F5"/>
<path d="M23.3434 13.2424L17.0259 19.5832C16.9535 19.5413 16.8773 19.5061 16.7984 19.4782L12.6276 18.0666C12.5014 18.0349 12.3895 17.9621 12.3095 17.8596C12.2295 17.7571 12.186 17.6308 12.186 17.5007C12.186 17.3707 12.2295 17.2444 12.3095 17.1419C12.3895 17.0394 12.5014 16.9665 12.6276 16.9349L22.9759 13.2541C23.0435 13.2311 23.1145 13.2193 23.1859 13.2191C23.2393 13.2182 23.2925 13.2261 23.3434 13.2424Z" fill="#84829A"/>
<path d="M23.7456 14.0242L20.0648 24.3842C20.0242 24.505 19.9452 24.6091 19.8399 24.6807C19.7345 24.7524 19.6087 24.7875 19.4815 24.7809C19.3528 24.7868 19.2258 24.7499 19.1203 24.6761C19.0147 24.6022 18.9366 24.4955 18.8981 24.3726L17.5098 20.2017C17.4819 20.1228 17.4467 20.0467 17.4048 19.9742L23.7573 13.6567C23.7931 13.7773 23.789 13.9062 23.7456 14.0242Z" fill="#84829A"/>
</svg>
