<svg width="55" height="18" viewBox="0 0 55 18" fill="none" xmlns="http://www.w3.org/2000/svg">
<path d="M3.03 5H4.08L2.652 0.799995H1.428L0 5H1.05L1.26 4.34H2.82L3.03 5ZM1.548 3.44L2.04 1.898L2.532 3.44H1.548Z" fill="white"/>
<path d="M6.20494 2L5.58094 3.902L4.95694 2H3.96094L5.07094 5H6.09094L7.20094 2H6.20494Z" fill="white"/>
<path d="M9.59198 2V2.282C9.39398 2.054 9.09999 1.916 8.69798 1.916C7.91198 1.916 7.26398 2.606 7.26398 3.5C7.26398 4.394 7.91198 5.084 8.69798 5.084C9.09999 5.084 9.39398 4.946 9.59198 4.718V5H10.492V2H9.59198ZM8.87799 4.232C8.46398 4.232 8.16398 3.95 8.16398 3.5C8.16398 3.05 8.46398 2.768 8.87799 2.768C9.29198 2.768 9.59198 3.05 9.59198 3.5C9.59198 3.95 9.29198 4.232 8.87799 4.232Z" fill="white"/>
<path d="M11.1523 5H12.0523V0.619995H11.1523V5Z" fill="white"/>
<path d="M13.1609 1.736C13.4549 1.736 13.7009 1.49 13.7009 1.196C13.7009 0.901995 13.4549 0.655995 13.1609 0.655995C12.8669 0.655995 12.6209 0.901995 12.6209 1.196C12.6209 1.49 12.8669 1.736 13.1609 1.736ZM12.7109 5H13.6109V2H12.7109V5Z" fill="white"/>
<path d="M16.0635 1.916C15.6615 1.916 15.3675 2.054 15.1695 2.282V0.799995H14.2695V5H15.1695V4.718C15.3675 4.946 15.6615 5.084 16.0635 5.084C16.8495 5.084 17.4975 4.394 17.4975 3.5C17.4975 2.606 16.8495 1.916 16.0635 1.916ZM15.8835 4.232C15.4695 4.232 15.1695 3.95 15.1695 3.5C15.1695 3.05 15.4695 2.768 15.8835 2.768C16.2975 2.768 16.5975 3.05 16.5975 3.5C16.5975 3.95 16.2975 4.232 15.8835 4.232Z" fill="white"/>
<path d="M18.0077 5H18.9077V0.619995H18.0077V5Z" fill="white"/>
<path d="M20.3703 3.86H22.5003C22.5243 3.746 22.5363 3.626 22.5363 3.5C22.5363 2.594 21.8883 1.916 21.0123 1.916C20.0643 1.916 19.4163 2.606 19.4163 3.5C19.4163 4.394 20.0523 5.084 21.0783 5.084C21.6483 5.084 22.0923 4.874 22.3863 4.466L21.6663 4.052C21.5463 4.184 21.3363 4.28 21.0903 4.28C20.7603 4.28 20.4843 4.172 20.3703 3.86ZM20.3523 3.188C20.4363 2.882 20.6643 2.714 21.0063 2.714C21.2763 2.714 21.5463 2.84 21.6423 3.188H20.3523Z" fill="white"/>
<path d="M25.9868 5.084C26.8688 5.084 27.5768 4.394 27.5768 3.5C27.5768 2.606 26.8688 1.916 25.9868 1.916C25.1048 1.916 24.3968 2.606 24.3968 3.5C24.3968 4.394 25.1048 5.084 25.9868 5.084ZM25.9868 4.208C25.5968 4.208 25.2968 3.926 25.2968 3.5C25.2968 3.074 25.5968 2.792 25.9868 2.792C26.3768 2.792 26.6768 3.074 26.6768 3.5C26.6768 3.926 26.3768 4.208 25.9868 4.208Z" fill="white"/>
<path d="M29.8439 1.916C29.4479 1.916 29.1479 2.06 28.9859 2.282V2H28.0859V5H28.9859V3.362C28.9859 2.936 29.2139 2.744 29.5439 2.744C29.8319 2.744 30.0659 2.918 30.0659 3.29V5H30.9659V3.158C30.9659 2.348 30.4499 1.916 29.8439 1.916Z" fill="white"/>
<path d="M34.8419 2.864V2H34.2239V1.15999L33.3239 1.43V2H32.8439V2.864H33.3239V3.926C33.3239 4.766 33.6659 5.12 34.8419 5V4.184C34.4459 4.208 34.2239 4.184 34.2239 3.926V2.864H34.8419Z" fill="white"/>
<path d="M37.1095 1.916C36.7135 1.916 36.4135 2.06 36.2515 2.282V0.799995H35.3515V5H36.2515V3.362C36.2515 2.936 36.4795 2.744 36.8095 2.744C37.0975 2.744 37.3315 2.918 37.3315 3.29V5H38.2315V3.158C38.2315 2.348 37.7155 1.916 37.1095 1.916Z" fill="white"/>
<path d="M39.6535 3.86H41.7835C41.8075 3.746 41.8195 3.626 41.8195 3.5C41.8195 2.594 41.1715 1.916 40.2955 1.916C39.3475 1.916 38.6995 2.606 38.6995 3.5C38.6995 4.394 39.3355 5.084 40.3615 5.084C40.9315 5.084 41.3755 4.874 41.6695 4.466L40.9495 4.052C40.8295 4.184 40.6195 4.28 40.3735 4.28C40.0435 4.28 39.7675 4.172 39.6535 3.86ZM39.6355 3.188C39.7195 2.882 39.9475 2.714 40.2895 2.714C40.5595 2.714 40.8295 2.84 40.9255 3.188H39.6355Z" fill="white"/>
<path d="M5.05 16H6.8L4.42 8.99999H2.38L0 16H1.75L2.1 14.9H4.7L5.05 16ZM2.58 13.4L3.4 10.83L4.22 13.4H2.58Z" fill="white"/>
<path d="M10.3369 10.86C9.66687 10.86 9.17688 11.09 8.84688 11.47V11H7.34688V18H8.84688V15.53C9.17688 15.91 9.66687 16.14 10.3369 16.14C11.6469 16.14 12.7269 14.99 12.7269 13.5C12.7269 12.01 11.6469 10.86 10.3369 10.86ZM10.0369 14.72C9.34688 14.72 8.84688 14.25 8.84688 13.5C8.84688 12.75 9.34688 12.28 10.0369 12.28C10.7269 12.28 11.2269 12.75 11.2269 13.5C11.2269 14.25 10.7269 14.72 10.0369 14.72Z" fill="white"/>
<path d="M16.5673 10.86C15.8973 10.86 15.4073 11.09 15.0773 11.47V11H13.5773V18H15.0773V15.53C15.4073 15.91 15.8973 16.14 16.5673 16.14C17.8773 16.14 18.9573 14.99 18.9573 13.5C18.9573 12.01 17.8773 10.86 16.5673 10.86ZM16.2673 14.72C15.5773 14.72 15.0773 14.25 15.0773 13.5C15.0773 12.75 15.5773 12.28 16.2673 12.28C16.9573 12.28 17.4573 12.75 17.4573 13.5C17.4573 14.25 16.9573 14.72 16.2673 14.72Z" fill="white"/>
<path d="M19.8078 16H21.3078V8.7H19.8078V16Z" fill="white"/>
<path d="M23.7455 14.1H27.2955C27.3355 13.91 27.3555 13.71 27.3555 13.5C27.3555 11.99 26.2755 10.86 24.8155 10.86C23.2355 10.86 22.1555 12.01 22.1555 13.5C22.1555 14.99 23.2155 16.14 24.9255 16.14C25.8755 16.14 26.6155 15.79 27.1055 15.11L25.9055 14.42C25.7055 14.64 25.3555 14.8 24.9455 14.8C24.3955 14.8 23.9355 14.62 23.7455 14.1ZM23.7155 12.98C23.8555 12.47 24.2355 12.19 24.8055 12.19C25.2555 12.19 25.7055 12.4 25.8655 12.98H23.7155Z" fill="white"/>
<path d="M33.2062 16.14C34.7262 16.14 35.8063 15.34 35.8063 13.99C35.8063 12.51 34.6163 12.14 33.5563 11.82C32.4663 11.49 32.2962 11.27 32.2962 10.95C32.2962 10.67 32.5462 10.42 33.0462 10.42C33.6862 10.42 34.0162 10.73 34.2562 11.23L35.6063 10.44C35.0963 9.41 34.1963 8.85999 33.0462 8.85999C31.8363 8.85999 30.6963 9.64 30.6963 10.99C30.6963 12.33 31.7162 12.83 32.7562 13.12C33.8062 13.41 34.2062 13.58 34.2062 14.01C34.2062 14.28 34.0162 14.58 33.2562 14.58C32.4662 14.58 32.0363 14.19 31.7862 13.61L30.4062 14.41C30.7962 15.44 31.7362 16.14 33.2062 16.14Z" fill="white"/>
<path d="M39.3394 12.44V11H38.3094V9.59999L36.8094 10.05V11H36.0094V12.44H36.8094V14.21C36.8094 15.61 37.3794 16.2 39.3394 16V14.64C38.6794 14.68 38.3094 14.64 38.3094 14.21V12.44H39.3394Z" fill="white"/>
<path d="M42.491 16.14C43.961 16.14 45.141 14.99 45.141 13.5C45.141 12.01 43.961 10.86 42.491 10.86C41.021 10.86 39.841 12.01 39.841 13.5C39.841 14.99 41.021 16.14 42.491 16.14ZM42.491 14.68C41.841 14.68 41.341 14.21 41.341 13.5C41.341 12.79 41.841 12.32 42.491 12.32C43.141 12.32 43.641 12.79 43.641 13.5C43.641 14.21 43.141 14.68 42.491 14.68Z" fill="white"/>
<path d="M47.4895 11.89V11H45.9895V16H47.4895V13.74C47.4895 12.75 48.3695 12.5 48.9895 12.6V10.9C48.3595 10.9 47.6895 11.22 47.4895 11.89Z" fill="white"/>
<path d="M50.8841 14.1H54.4341C54.4741 13.91 54.4941 13.71 54.4941 13.5C54.4941 11.99 53.4141 10.86 51.9541 10.86C50.3741 10.86 49.2941 12.01 49.2941 13.5C49.2941 14.99 50.3541 16.14 52.0641 16.14C53.0141 16.14 53.7541 15.79 54.2441 15.11L53.0441 14.42C52.8441 14.64 52.4941 14.8 52.0841 14.8C51.5341 14.8 51.0741 14.62 50.8841 14.1ZM50.8541 12.98C50.9941 12.47 51.3741 12.19 51.9441 12.19C52.3941 12.19 52.8441 12.4 53.0041 12.98H50.8541Z" fill="white"/>
</svg>
