<svg width="54" height="16" viewBox="0 0 54 16" fill="none" xmlns="http://www.w3.org/2000/svg">
<path d="M6.02423 2.87996H3.21623V3.99996H4.71223C4.51223 4.53596 4.02423 4.86396 3.28023 4.86396C2.19223 4.86396 1.52023 4.16796 1.52023 3.21596C1.52023 2.23196 2.22423 1.53596 3.16823 1.53596C3.80023 1.53596 4.30423 1.82396 4.53623 2.19196L5.62423 1.56796C5.15223 0.815964 4.24823 0.287964 3.17623 0.287964C1.52823 0.287964 0.240234 1.58396 0.240234 3.20796C0.240234 4.81596 1.50423 6.11196 3.26423 6.11196C4.83223 6.11196 6.02423 5.07196 6.02423 3.35996V2.87996Z" fill="white"/>
<path d="M7.62586 4.76796V3.77596H9.62586V2.55996H7.62586V1.63196H9.82586V0.399964H6.34586V5.99996H9.86586V4.76796H7.62586Z" fill="white"/>
<path d="M13.948 0.399964H9.78805V1.63196H11.228V5.99996H12.508V1.63196H13.948V0.399964Z" fill="white"/>
<path d="M15.7084 0.399964V5.99996H16.9884V0.399964H15.7084Z" fill="white"/>
<path d="M21.3105 0.399964H17.1505V1.63196H18.5905V5.99996H19.8705V1.63196H21.3105V0.399964Z" fill="white"/>
<path d="M25.7429 6.11196C27.3509 6.11196 28.6549 4.84796 28.6549 3.19996C28.6549 1.55196 27.3509 0.287964 25.7429 0.287964C24.1349 0.287964 22.8309 1.55196 22.8309 3.19996C22.8309 4.84796 24.1349 6.11196 25.7429 6.11196ZM25.7429 4.86396C24.8309 4.86396 24.1109 4.19996 24.1109 3.19996C24.1109 2.19996 24.8309 1.53596 25.7429 1.53596C26.6549 1.53596 27.3749 2.19996 27.3749 3.19996C27.3749 4.19996 26.6549 4.86396 25.7429 4.86396Z" fill="white"/>
<path d="M32.0955 0.399964V3.43996L29.9355 0.399964H28.9755V5.99996H30.2555V2.95996L32.4155 5.99996H33.3755V0.399964H32.0955Z" fill="white"/>
<path d="M6.02423 12.392V12.608C6.02423 13.3066 5.77623 13.896 5.28023 14.376C4.78423 14.8506 4.1309 15.088 3.32023 15.088C2.4669 15.088 1.7629 14.8106 1.20823 14.256C0.653568 13.696 0.376234 13.0106 0.376234 12.2C0.376234 11.3893 0.650901 10.7066 1.20023 10.152C1.74957 9.59196 2.44557 9.31196 3.28823 9.31196C3.80023 9.31196 4.26957 9.43463 4.69623 9.67996C5.12823 9.9253 5.46157 10.2533 5.69623 10.664L5.32023 10.888C5.13357 10.536 4.85623 10.2533 4.48823 10.04C4.12557 9.82663 3.72557 9.71996 3.28823 9.71996C2.5629 9.71996 1.96557 9.95996 1.49623 10.44C1.03223 10.9146 0.800234 11.5013 0.800234 12.2C0.800234 12.8986 1.0349 13.488 1.50423 13.968C1.97357 14.4426 2.5789 14.68 3.32023 14.68C3.97623 14.68 4.5069 14.5013 4.91223 14.144C5.31757 13.7866 5.54423 13.336 5.59223 12.792H3.21623V12.392H6.02423Z" fill="white"/>
<path d="M11.7029 14.248C11.1429 14.808 10.4602 15.088 9.65486 15.088C8.84953 15.088 8.16686 14.808 7.60686 14.248C7.04686 13.6826 6.76686 13 6.76686 12.2C6.76686 11.4 7.04686 10.72 7.60686 10.16C8.16686 9.59463 8.84953 9.31196 9.65486 9.31196C10.4602 9.31196 11.1429 9.59463 11.7029 10.16C12.2629 10.72 12.5429 11.4 12.5429 12.2C12.5429 13 12.2629 13.6826 11.7029 14.248ZM7.90286 13.96C8.38286 14.44 8.96686 14.68 9.65486 14.68C10.3429 14.68 10.9242 14.44 11.3989 13.96C11.8789 13.4746 12.1189 12.888 12.1189 12.2C12.1189 11.512 11.8789 10.928 11.3989 10.448C10.9242 9.96263 10.3429 9.71996 9.65486 9.71996C8.96686 9.71996 8.38286 9.96263 7.90286 10.448C7.42819 10.928 7.19086 11.512 7.19086 12.2C7.19086 12.888 7.42819 13.4746 7.90286 13.96Z" fill="white"/>
<path d="M18.2341 14.248C17.6741 14.808 16.9914 15.088 16.1861 15.088C15.3808 15.088 14.6981 14.808 14.1381 14.248C13.5781 13.6826 13.2981 13 13.2981 12.2C13.2981 11.4 13.5781 10.72 14.1381 10.16C14.6981 9.59463 15.3808 9.31196 16.1861 9.31196C16.9914 9.31196 17.6741 9.59463 18.2341 10.16C18.7941 10.72 19.0741 11.4 19.0741 12.2C19.0741 13 18.7941 13.6826 18.2341 14.248ZM14.4341 13.96C14.9141 14.44 15.4981 14.68 16.1861 14.68C16.8741 14.68 17.4554 14.44 17.9301 13.96C18.4101 13.4746 18.6501 12.888 18.6501 12.2C18.6501 11.512 18.4101 10.928 17.9301 10.448C17.4554 9.96263 16.8741 9.71996 16.1861 9.71996C15.4981 9.71996 14.9141 9.96263 14.4341 10.448C13.9594 10.928 13.7221 11.512 13.7221 12.2C13.7221 12.888 13.9594 13.4746 14.4341 13.96Z" fill="white"/>
<path d="M25.4774 12.392V12.608C25.4774 13.3066 25.2294 13.896 24.7334 14.376C24.2374 14.8506 23.584 15.088 22.7734 15.088C21.92 15.088 21.216 14.8106 20.6614 14.256C20.1067 13.696 19.8294 13.0106 19.8294 12.2C19.8294 11.3893 20.104 10.7066 20.6534 10.152C21.2027 9.59196 21.8987 9.31196 22.7414 9.31196C23.2534 9.31196 23.7227 9.43463 24.1494 9.67996C24.5814 9.9253 24.9147 10.2533 25.1494 10.664L24.7734 10.888C24.5867 10.536 24.3094 10.2533 23.9414 10.04C23.5787 9.82663 23.1787 9.71996 22.7414 9.71996C22.016 9.71996 21.4187 9.95996 20.9494 10.44C20.4854 10.9146 20.2534 11.5013 20.2534 12.2C20.2534 12.8986 20.488 13.488 20.9574 13.968C21.4267 14.4426 22.032 14.68 22.7734 14.68C23.4294 14.68 23.96 14.5013 24.3654 14.144C24.7707 13.7866 24.9974 13.336 25.0454 12.792H22.6694V12.392H25.4774Z" fill="white"/>
<path d="M26.964 14.6H29.604V15H26.54V9.39996H26.964V14.6Z" fill="white"/>
<path d="M30.9093 14.6H33.7093V15H30.4853V9.39996H33.6693V9.79996H30.9093V11.976H33.4693V12.376H30.9093V14.6Z" fill="white"/>
<path d="M38.7877 9.39996C39.2891 9.39996 39.7051 9.5653 40.0357 9.89596C40.3664 10.2266 40.5317 10.64 40.5317 11.136C40.5317 11.632 40.3664 12.0453 40.0357 12.376C39.7051 12.7013 39.2891 12.864 38.7877 12.864H37.3077V15H36.8837V9.39996H38.7877ZM38.7877 12.464C39.1717 12.464 39.4864 12.3386 39.7317 12.088C39.9824 11.8373 40.1077 11.52 40.1077 11.136C40.1077 10.7466 39.9824 10.4266 39.7317 10.176C39.4864 9.9253 39.1717 9.79996 38.7877 9.79996H37.3077V12.464H38.7877Z" fill="white"/>
<path d="M42.003 14.6H44.643V15H41.579V9.39996H42.003V14.6Z" fill="white"/>
<path d="M49.4486 15L48.9046 13.576H46.0966L45.5526 15H45.1046L47.2806 9.39996H47.7286L49.8966 15H49.4486ZM46.2566 13.176H48.7526L47.5046 9.91996L46.2566 13.176Z" fill="white"/>
<path d="M53.8811 9.39996L51.8411 12.696V15H51.4171V12.696L49.3771 9.39996H49.8571L51.6331 12.288L53.4011 9.39996H53.8811Z" fill="white"/>
</svg>
